<svg xmlns="http://www.w3.org/2000/svg" width="20" height="20" viewBox="0 0 20 20" fill="none">
  <mask id="mask0_663_1476" style="mask-type:luminance" maskUnits="userSpaceOnUse" x="0" y="0" width="20" height="21">
    <path d="M10 20.0049C4.48395 20.0049 0 15.516 0 10.0049C0 4.49383 4.48395 0 10 0C15.516 0 20 4.48889 20 10C20 15.5111 15.5111 20 10 20V20.0049Z" fill="white" style="fill:white;fill-opacity:1;"/>
  </mask>
  <g mask="url(#mask0_663_1476)">
    <path d="M24.6123 0H-4.78027V20.0049H24.6123V0Z" fill="white" style="fill:white;fill-opacity:1;"/>
    <path d="M24.6123 3.06667H-4.78027V4.65679H24.6123V3.06667Z" fill="#FA001C" style="fill:#FA001C;fill:color(display-p3 0.9804 0.0000 0.1098);fill-opacity:1;"/>
    <path d="M24.6123 0H-4.78027V1.59012H24.6123V0Z" fill="#FA001C" style="fill:#FA001C;fill:color(display-p3 0.9804 0.0000 0.1098);fill-opacity:1;"/>
    <path d="M24.6123 6.13826H-4.78027V7.72838H24.6123V6.13826Z" fill="#FA001C" style="fill:#FA001C;fill:color(display-p3 0.9804 0.0000 0.1098);fill-opacity:1;"/>
    <path d="M24.6123 9.20494H-4.78027V10.7951H24.6123V9.20494Z" fill="#FA001C" style="fill:#FA001C;fill:color(display-p3 0.9804 0.0000 0.1098);fill-opacity:1;"/>
    <path d="M24.6123 12.2765H-4.78027V13.8667H24.6123V12.2765Z" fill="#FA001C" style="fill:#FA001C;fill:color(display-p3 0.9804 0.0000 0.1098);fill-opacity:1;"/>
    <path d="M24.6123 15.3432H-4.78027V16.9333H24.6123V15.3432Z" fill="#FA001C" style="fill:#FA001C;fill:color(display-p3 0.9804 0.0000 0.1098);fill-opacity:1;"/>
    <path d="M24.6123 18.4099H-4.78027V20H24.6123V18.4099Z" fill="#FA001C" style="fill:#FA001C;fill:color(display-p3 0.9804 0.0000 0.1098);fill-opacity:1;"/>
    <path d="M10.4 0H-4.78027V10.7951H10.4V0Z" fill="#0039BA" style="fill:#0039BA;fill:color(display-p3 0.0000 0.2235 0.7294);fill-opacity:1;"/>
    <path d="M1.55554 0.948151L1.77776 1.27901L2.15801 1.38272L1.91109 1.68889L1.92591 2.08395L1.55554 1.94568L1.19011 2.08395L1.20492 1.68889L0.958008 1.38272L1.33825 1.27901L1.55554 0.948151Z" fill="white" style="fill:white;fill-opacity:1;"/>
    <path d="M4.06042 0.948151L4.27771 1.27901L4.66289 1.38272L4.41598 1.68889L4.43079 2.08395L4.06042 1.94568L3.69005 2.08395L3.7098 1.68889L3.46289 1.38272L3.84314 1.27901L4.06042 0.948151Z" fill="white" style="fill:white;fill-opacity:1;"/>
    <path d="M6.56335 0.948151L6.78063 1.27901L7.16088 1.38272L6.91397 1.68889L6.93372 2.08395L6.56335 1.94568L6.19298 2.08395L6.21273 1.68889L5.96582 1.38272L6.34607 1.27901L6.56335 0.948151Z" fill="white" style="fill:white;fill-opacity:1;"/>
    <path d="M9.06634 0.948151L9.28362 1.27901L9.66387 1.38272L9.41695 1.68889L9.43671 2.08395L9.06634 1.94568L8.69597 2.08395L8.71078 1.68889L8.46387 1.38272L8.84905 1.27901L9.06634 0.948151Z" fill="white" style="fill:white;fill-opacity:1;"/>
    <path d="M0.251828 2.45926L0.469112 2.79012L0.854297 2.89383L0.607383 3.20494L0.622198 3.6L0.251828 3.46173L-0.118543 3.6L-0.0987895 3.20494L-0.345703 2.89383L0.034544 2.79012L0.251828 2.45926Z" fill="white" style="fill:white;fill-opacity:1;"/>
    <path d="M2.75573 2.45926L2.97302 2.79012L3.35326 2.89383L3.10635 3.20494L3.1261 3.6L2.75573 3.46173L2.38536 3.6L2.40512 3.20494L2.1582 2.89383L2.53845 2.79012L2.75573 2.45926Z" fill="white" style="fill:white;fill-opacity:1;"/>
    <path d="M5.25964 2.45926L5.47692 2.79012L5.85717 2.89383L5.61026 3.20494L5.63001 3.6L5.25964 3.46173L4.88927 3.6L4.90408 3.20494L4.66211 2.89383L5.04236 2.79012L5.25964 2.45926Z" fill="white" style="fill:white;fill-opacity:1;"/>
    <path d="M7.7636 2.45926L7.98089 2.79012L8.36113 2.89383L8.11422 3.20494L8.12903 3.6L7.7636 3.46173L7.39323 3.6L7.40805 3.20494L7.16113 2.89383L7.54138 2.79012L7.7636 2.45926Z" fill="white" style="fill:white;fill-opacity:1;"/>
    <path d="M1.55554 4.07408L1.77776 4.40001L2.15801 4.50865L1.91109 4.81482L1.92591 5.20988L1.55554 5.07161L1.19011 5.20988L1.20492 4.81482L0.958008 4.50865L1.33825 4.40001L1.55554 4.07408Z" fill="white" style="fill:white;fill-opacity:1;"/>
    <path d="M4.06042 4.07408L4.27771 4.40001L4.66289 4.50865L4.41598 4.81482L4.43079 5.20988L4.06042 5.07161L3.69005 5.20988L3.7098 4.81482L3.46289 4.50865L3.84314 4.40001L4.06042 4.07408Z" fill="white" style="fill:white;fill-opacity:1;"/>
    <path d="M6.56335 4.07408L6.78063 4.40001L7.16088 4.50865L6.91397 4.81482L6.93372 5.20988L6.56335 5.07161L6.19298 5.20988L6.21273 4.81482L5.96582 4.50865L6.34607 4.40001L6.56335 4.07408Z" fill="white" style="fill:white;fill-opacity:1;"/>
    <path d="M9.06634 4.07408L9.28362 4.40001L9.66387 4.50865L9.41695 4.81482L9.43671 5.20988L9.06634 5.07161L8.69597 5.20988L8.71078 4.81482L8.46387 4.50865L8.84905 4.40001L9.06634 4.07408Z" fill="white" style="fill:white;fill-opacity:1;"/>
    <path d="M0.251828 5.58519L0.469112 5.91605L0.854297 6.01976L0.607383 6.33087L0.622198 6.72593L0.251828 6.58766L-0.118543 6.72593L-0.0987895 6.33087L-0.345703 6.01976L0.034544 5.91605L0.251828 5.58519Z" fill="white" style="fill:white;fill-opacity:1;"/>
    <path d="M2.75573 5.58519L2.97302 5.91605L3.35326 6.01976L3.10635 6.33087L3.1261 6.72593L2.75573 6.58766L2.38536 6.72593L2.40512 6.33087L2.1582 6.01976L2.53845 5.91605L2.75573 5.58519Z" fill="white" style="fill:white;fill-opacity:1;"/>
    <path d="M5.25964 5.58519L5.47692 5.91605L5.85717 6.01976L5.61026 6.33087L5.63001 6.72593L5.25964 6.58766L4.88927 6.72593L4.90408 6.33087L4.66211 6.01976L5.04236 5.91605L5.25964 5.58519Z" fill="white" style="fill:white;fill-opacity:1;"/>
    <path d="M7.7636 5.58519L7.98089 5.91605L8.36113 6.01976L8.11422 6.33087L8.12903 6.72593L7.7636 6.58766L7.39323 6.72593L7.40805 6.33087L7.16113 6.01976L7.54138 5.91605L7.7636 5.58519Z" fill="white" style="fill:white;fill-opacity:1;"/>
    <path d="M1.55554 7.19505L1.77776 7.52592L2.15801 7.63456L1.91109 7.94073L1.92591 8.33579L1.55554 8.19752L1.19011 8.33579L1.20492 7.94073L0.958008 7.63456L1.33825 7.52592L1.55554 7.19505Z" fill="white" style="fill:white;fill-opacity:1;"/>
    <path d="M4.06042 7.19505L4.27771 7.52592L4.66289 7.63456L4.41598 7.94073L4.43079 8.33579L4.06042 8.19752L3.69005 8.33579L3.7098 7.94073L3.46289 7.63456L3.84314 7.52592L4.06042 7.19505Z" fill="white" style="fill:white;fill-opacity:1;"/>
    <path d="M6.56335 7.19505L6.78063 7.52592L7.16088 7.63456L6.91397 7.94073L6.93372 8.33579L6.56335 8.19752L6.19298 8.33579L6.21273 7.94073L5.96582 7.63456L6.34607 7.52592L6.56335 7.19505Z" fill="white" style="fill:white;fill-opacity:1;"/>
    <path d="M9.06634 7.19505L9.28362 7.52592L9.66387 7.63456L9.41695 7.94073L9.43671 8.33579L9.06634 8.19752L8.69597 8.33579L8.71078 7.94073L8.46387 7.63456L8.84905 7.52592L9.06634 7.19505Z" fill="white" style="fill:white;fill-opacity:1;"/>
    <path d="M0.251828 8.71111L0.469112 9.04197L0.854297 9.14567L0.607383 9.45678L0.622198 9.85185L0.251828 9.71357L-0.118543 9.85185L-0.0987895 9.45678L-0.345703 9.14567L0.034544 9.04197L0.251828 8.71111Z" fill="white" style="fill:white;fill-opacity:1;"/>
    <path d="M2.75573 8.71111L2.97302 9.04197L3.35326 9.14567L3.10635 9.45678L3.1261 9.85185L2.75573 9.71357L2.38536 9.85185L2.40512 9.45678L2.1582 9.14567L2.53845 9.04197L2.75573 8.71111Z" fill="white" style="fill:white;fill-opacity:1;"/>
    <path d="M5.25964 8.71111L5.47692 9.04197L5.85717 9.14567L5.61026 9.45678L5.63001 9.85185L5.25964 9.71357L4.88927 9.85185L4.90408 9.45678L4.66211 9.14567L5.04236 9.04197L5.25964 8.71111Z" fill="white" style="fill:white;fill-opacity:1;"/>
    <path d="M7.7636 8.71111L7.98089 9.04197L8.36113 9.14567L8.11422 9.45678L8.12903 9.85185L7.7636 9.71357L7.39323 9.85185L7.40805 9.45678L7.16113 9.14567L7.54138 9.04197L7.7636 8.71111Z" fill="white" style="fill:white;fill-opacity:1;"/>
  </g>
</svg>