<svg xmlns="http://www.w3.org/2000/svg" width="20" height="20" viewBox="0 0 20 20" fill="none">
  <mask id="mask0_663_1299" style="mask-type:luminance" maskUnits="userSpaceOnUse" x="0" y="0" width="20" height="21">
    <path d="M10 20.0049C4.48395 20.0049 0 15.516 0 10C0 4.48395 4.48395 0 10 0C15.516 0 20 4.48889 20 10C20 15.5111 15.5111 20 10 20V20.0049Z" fill="white" style="fill:white;fill-opacity:1;"/>
  </mask>
  <g mask="url(#mask0_663_1299)">
    <path d="M29.3671 13.3284H-0.015625V19.9951H29.3671V13.3284Z" fill="#DB0B2D" style="fill:#DB0B2D;fill:color(display-p3 0.8588 0.0431 0.1765);fill-opacity:1;"/>
    <path d="M29.3671 0H-0.015625V6.66667H29.3671V0Z" fill="#DB0B2D" style="fill:#DB0B2D;fill:color(display-p3 0.8588 0.0431 0.1765);fill-opacity:1;"/>
    <path d="M29.3671 4.64693H-0.015625V15.3482H29.3671V4.64693Z" fill="#FFCE05" style="fill:#FFCE05;fill:color(display-p3 1.0000 0.8078 0.0196);fill-opacity:1;"/>
    <path d="M10.8639 10.8691C10.7157 11.4469 9.41698 11.6296 9.41698 11.6296C9.22932 11.8765 9.39722 12.0395 9.39722 12.0395C10.7108 12.0346 11.1306 11.1062 11.1306 11.1062L10.8639 10.8691Z" fill="#DB0B2D" style="fill:#DB0B2D;fill:color(display-p3 0.8588 0.0431 0.1765);fill-opacity:1;"/>
    <path d="M10.6568 9.32347H10.5827H10V13.3185H10.5827H10.6568H10.7259V9.32347H10.6568Z" fill="#E3E4E9" style="fill:#E3E4E9;fill:color(display-p3 0.8902 0.8941 0.9137);fill-opacity:1;"/>
    <path d="M10.69 9.25926H10.0332V9.32346H10.69V9.25926Z" fill="#E3E4E9" style="fill:#E3E4E9;fill:color(display-p3 0.8902 0.8941 0.9137);fill-opacity:1;"/>
    <path d="M10.69 13.3037H10.0332V13.3679H10.69V13.3037Z" fill="#E3E4E9" style="fill:#E3E4E9;fill:color(display-p3 0.8902 0.8941 0.9137);fill-opacity:1;"/>
    <path d="M10.6906 13.4617L10.7647 13.4222L10.6906 13.3679H9.9647L9.89062 13.4222L9.9647 13.4617H10.6906Z" fill="#C69024" style="fill:#C69024;fill:color(display-p3 0.7765 0.5647 0.1412);fill-opacity:1;"/>
    <path d="M10.9127 13.6099H9.81641V14.0889H10.9127V13.6099Z" fill="#C69024" style="fill:#C69024;fill:color(display-p3 0.7765 0.5647 0.1412);fill-opacity:1;"/>
    <path d="M10.6905 13.4617C10.6905 13.5259 10.7646 13.5951 10.9078 13.6099H9.81152C9.8856 13.5951 9.95967 13.5309 9.95967 13.4617H10.6905Z" fill="#C69024" style="fill:#C69024;fill:color(display-p3 0.7765 0.5647 0.1412);fill-opacity:1;"/>
    <path d="M10.69 9.25926H10.0332V9.32346H10.69V9.25926Z" fill="#E3E4E9" style="fill:#E3E4E9;fill:color(display-p3 0.8902 0.8941 0.9137);fill-opacity:1;"/>
    <path d="M10.6906 9.17532L10.7647 9.21977L10.6906 9.25927H9.9647L9.89062 9.21977L9.9647 9.17532H10.6906Z" fill="#C69024" style="fill:#C69024;fill:color(display-p3 0.7765 0.5647 0.1412);fill-opacity:1;"/>
    <path d="M10.9127 8.72595H9.81641V9.03213H10.9127V8.72595Z" fill="#C69024" style="fill:#C69024;fill:color(display-p3 0.7765 0.5647 0.1412);fill-opacity:1;"/>
    <path d="M10.6905 9.17531C10.6905 9.11112 10.7646 9.04198 10.9078 9.0321H9.81152C9.8856 9.04198 9.95967 9.11112 9.95967 9.17531H10.6905Z" fill="#C69024" style="fill:#C69024;fill:color(display-p3 0.7765 0.5647 0.1412);fill-opacity:1;"/>
    <path d="M11.0565 14.0593C10.9083 14.0593 10.8392 13.9901 10.691 13.9901C10.5429 13.9901 10.4737 14.0593 10.3256 14.0593C10.1774 14.0593 10.0342 13.9901 9.96016 13.9901C9.81201 13.9901 9.74287 14.0593 9.59473 14.0593V13.9407C9.73794 13.9407 9.81201 13.8716 9.96016 13.8716C10.0342 13.8716 10.1774 13.9407 10.3256 13.9407C10.4737 13.9407 10.5429 13.8716 10.691 13.8716C10.8392 13.8716 10.9083 13.9407 11.0565 13.9407V14.0593Z" fill="#7AAFDE" style="fill:#7AAFDE;fill:color(display-p3 0.4784 0.6863 0.8706);fill-opacity:1;"/>
    <path d="M11.0565 14.1827C10.9083 14.1827 10.8392 14.1136 10.691 14.1136C10.5429 14.1136 10.4737 14.1827 10.3256 14.1827C10.1774 14.1827 10.0342 14.1136 9.96016 14.1136C9.81201 14.1136 9.74287 14.1827 9.59473 14.1827V14.0642C9.73794 14.0642 9.81201 13.9951 9.96016 13.9951C10.0342 13.9951 10.1774 14.0642 10.3256 14.0642C10.4737 14.0642 10.5429 13.9951 10.691 13.9951C10.8392 13.9951 10.9083 14.0642 11.0565 14.0642V14.1827Z" fill="#E3E4E9" style="fill:#E3E4E9;fill:color(display-p3 0.8902 0.8941 0.9137);fill-opacity:1;"/>
    <path d="M11.0565 14.3012C10.9083 14.3012 10.8392 14.237 10.691 14.237C10.5429 14.237 10.4737 14.3012 10.3256 14.3012C10.1774 14.3012 10.0342 14.237 9.96016 14.237C9.81201 14.237 9.74287 14.3012 9.59473 14.3012V14.1827C9.73794 14.1827 9.81201 14.1136 9.96016 14.1136C10.0342 14.1136 10.1774 14.1827 10.3256 14.1827C10.4737 14.1827 10.5429 14.1136 10.691 14.1136C10.8392 14.1136 10.9083 14.1827 11.0565 14.1827V14.3012Z" fill="#7AAFDE" style="fill:#7AAFDE;fill:color(display-p3 0.4784 0.6863 0.8706);fill-opacity:1;"/>
    <path d="M11.0565 14.4198C10.9083 14.4198 10.8392 14.3506 10.691 14.3506C10.5429 14.3506 10.4737 14.4198 10.3256 14.4198C10.1774 14.4198 10.0342 14.3506 9.96016 14.3506C9.81201 14.3506 9.74287 14.4198 9.59473 14.4198V14.3013C9.73794 14.3013 9.81201 14.2371 9.96016 14.2371C10.0342 14.2371 10.1774 14.3013 10.3256 14.3013C10.4737 14.3013 10.5429 14.2371 10.691 14.2371C10.8392 14.2371 10.9083 14.3013 11.0565 14.3013V14.4198Z" fill="#E3E4E9" style="fill:#E3E4E9;fill:color(display-p3 0.8902 0.8941 0.9137);fill-opacity:1;"/>
    <path d="M11.0565 14.5432C10.9083 14.5432 10.8392 14.4741 10.691 14.4741C10.5429 14.4741 10.4737 14.5432 10.3256 14.5432C10.1774 14.5432 10.0342 14.4741 9.96016 14.4741C9.81201 14.4741 9.74287 14.5432 9.59473 14.5432V14.4198C9.73794 14.4198 9.81201 14.3506 9.96016 14.3506C10.0342 14.3506 10.1774 14.4198 10.3256 14.4198C10.4737 14.4198 10.5429 14.3506 10.691 14.3506C10.8392 14.3506 10.9083 14.4198 11.0565 14.4198V14.5432Z" fill="#7AAFDE" style="fill:#7AAFDE;fill:color(display-p3 0.4784 0.6863 0.8706);fill-opacity:1;"/>
    <path d="M9.08599 10.3358C9.30822 10.2864 10.3996 10.0198 11.2045 10.6815C11.1304 10.8 11.0564 10.9877 11.1304 11.1062C10.8341 10.9482 10.1774 10.5235 9.08105 10.8296V10.3358" fill="#DB0B2D" style="fill:#DB0B2D;fill:color(display-p3 0.8588 0.0431 0.1765);fill-opacity:1;"/>
    <path d="M10.4727 10.5333L10.5467 10.5482V10.484L10.4727 10.4691V10.5383" fill="#DB0B2D" style="fill:#DB0B2D;fill:color(display-p3 0.8588 0.0431 0.1765);fill-opacity:1;"/>
    <path d="M9.41624 11.6296L9.39648 12.0395C10.1817 11.8914 11.0261 12.6617 11.0261 12.6617L11.1298 12.3753C10.6459 11.6889 9.41624 11.6296 9.41624 11.6296Z" fill="#DB0B2D" style="fill:#DB0B2D;fill:color(display-p3 0.8588 0.0431 0.1765);fill-opacity:1;"/>
    <path d="M3.32721 10.8691C3.47536 11.4469 4.77413 11.6296 4.77413 11.6296C4.96178 11.8765 4.79388 12.0395 4.79388 12.0395C3.4803 12.0346 3.06055 11.1062 3.06055 11.1062L3.32721 10.8691Z" fill="#DB0B2D" style="fill:#DB0B2D;fill:color(display-p3 0.8588 0.0431 0.1765);fill-opacity:1;"/>
    <path d="M3.54087 9.32347H3.61494H4.19766V13.3185H3.61494H3.54087H3.4668V9.32347H3.54087Z" fill="#E3E4E9" style="fill:#E3E4E9;fill:color(display-p3 0.8902 0.8941 0.9137);fill-opacity:1;"/>
    <path d="M4.16265 9.25926H3.50586V9.32346H4.16265V9.25926Z" fill="#E3E4E9" style="fill:#E3E4E9;fill:color(display-p3 0.8902 0.8941 0.9137);fill-opacity:1;"/>
    <path d="M4.16265 13.3037H3.50586V13.3679H4.16265V13.3037Z" fill="#E3E4E9" style="fill:#E3E4E9;fill:color(display-p3 0.8902 0.8941 0.9137);fill-opacity:1;"/>
    <path d="M3.50571 13.4617L3.43164 13.4222L3.50571 13.3679H4.23164L4.30571 13.4222L4.23164 13.4617H3.50571Z" fill="#C69024" style="fill:#C69024;fill:color(display-p3 0.7765 0.5647 0.1412);fill-opacity:1;"/>
    <path d="M4.3795 13.6099H3.2832V14.0889H4.3795V13.6099Z" fill="#C69024" style="fill:#C69024;fill:color(display-p3 0.7765 0.5647 0.1412);fill-opacity:1;"/>
    <path d="M3.50635 13.4617C3.50635 13.5259 3.43227 13.5951 3.28906 13.6099H4.38536C4.31128 13.5951 4.23721 13.5309 4.23721 13.4617H3.50635Z" fill="#C69024" style="fill:#C69024;fill:color(display-p3 0.7765 0.5647 0.1412);fill-opacity:1;"/>
    <path d="M4.16265 9.25926H3.50586V9.32346H4.16265V9.25926Z" fill="#E3E4E9" style="fill:#E3E4E9;fill:color(display-p3 0.8902 0.8941 0.9137);fill-opacity:1;"/>
    <path d="M3.50571 9.17532L3.43164 9.21977L3.50571 9.25927H4.23164L4.30571 9.21977L4.23164 9.17532H3.50571Z" fill="#C69024" style="fill:#C69024;fill:color(display-p3 0.7765 0.5647 0.1412);fill-opacity:1;"/>
    <path d="M4.3795 8.72595H3.2832V9.03213H4.3795V8.72595Z" fill="#C69024" style="fill:#C69024;fill:color(display-p3 0.7765 0.5647 0.1412);fill-opacity:1;"/>
    <path d="M3.50635 9.17531C3.50635 9.11112 3.43227 9.04198 3.28906 9.0321H4.38536C4.31128 9.04198 4.23721 9.11112 4.23721 9.17531H3.50635Z" fill="#C69024" style="fill:#C69024;fill:color(display-p3 0.7765 0.5647 0.1412);fill-opacity:1;"/>
    <path d="M3.14062 14.0593C3.28877 14.0593 3.35791 13.9901 3.50606 13.9901C3.65421 13.9901 3.72334 14.0593 3.87149 14.0593C4.01964 14.0593 4.16285 13.9901 4.23692 13.9901C4.38507 13.9901 4.45421 14.0593 4.60235 14.0593V13.9407C4.45914 13.9407 4.38507 13.8716 4.23692 13.8716C4.16285 13.8716 4.01964 13.9407 3.87149 13.9407C3.72334 13.9407 3.65421 13.8716 3.50606 13.8716C3.35791 13.8716 3.28877 13.9407 3.14062 13.9407V14.0593Z" fill="#7AAFDE" style="fill:#7AAFDE;fill:color(display-p3 0.4784 0.6863 0.8706);fill-opacity:1;"/>
    <path d="M3.14062 14.1827C3.28877 14.1827 3.35791 14.1136 3.50606 14.1136C3.65421 14.1136 3.72334 14.1827 3.87149 14.1827C4.01964 14.1827 4.16285 14.1136 4.23692 14.1136C4.38507 14.1136 4.45421 14.1827 4.60235 14.1827V14.0642C4.45914 14.0642 4.38507 13.9951 4.23692 13.9951C4.16285 13.9951 4.01964 14.0642 3.87149 14.0642C3.72334 14.0642 3.65421 13.9951 3.50606 13.9951C3.35791 13.9951 3.28877 14.0642 3.14062 14.0642V14.1827Z" fill="#E3E4E9" style="fill:#E3E4E9;fill:color(display-p3 0.8902 0.8941 0.9137);fill-opacity:1;"/>
    <path d="M3.14062 14.3012C3.28877 14.3012 3.35791 14.237 3.50606 14.237C3.65421 14.237 3.72334 14.3012 3.87149 14.3012C4.01964 14.3012 4.16285 14.237 4.23692 14.237C4.38507 14.237 4.45421 14.3012 4.60235 14.3012V14.1827C4.45914 14.1827 4.38507 14.1136 4.23692 14.1136C4.16285 14.1136 4.01964 14.1827 3.87149 14.1827C3.72334 14.1827 3.65421 14.1136 3.50606 14.1136C3.35791 14.1136 3.28877 14.1827 3.14062 14.1827V14.3012Z" fill="#7AAFDE" style="fill:#7AAFDE;fill:color(display-p3 0.4784 0.6863 0.8706);fill-opacity:1;"/>
    <path d="M3.14062 14.4198C3.28877 14.4198 3.35791 14.3506 3.50606 14.3506C3.65421 14.3506 3.72334 14.4198 3.87149 14.4198C4.01964 14.4198 4.16285 14.3506 4.23692 14.3506C4.38507 14.3506 4.45421 14.4198 4.60235 14.4198V14.3013C4.45914 14.3013 4.38507 14.2371 4.23692 14.2371C4.16285 14.2371 4.01964 14.3013 3.87149 14.3013C3.72334 14.3013 3.65421 14.2371 3.50606 14.2371C3.35791 14.2371 3.28877 14.3013 3.14062 14.3013V14.4198Z" fill="#E3E4E9" style="fill:#E3E4E9;fill:color(display-p3 0.8902 0.8941 0.9137);fill-opacity:1;"/>
    <path d="M3.14062 14.5432C3.28877 14.5432 3.35791 14.4741 3.50606 14.4741C3.65421 14.4741 3.72334 14.5432 3.87149 14.5432C4.01964 14.5432 4.16285 14.4741 4.23692 14.4741C4.38507 14.4741 4.45421 14.5432 4.60235 14.5432V14.4198C4.45914 14.4198 4.38507 14.3506 4.23692 14.3506C4.16285 14.3506 4.01964 14.4198 3.87149 14.4198C3.72334 14.4198 3.65421 14.3506 3.50606 14.3506C3.35791 14.3506 3.28877 14.4198 3.14062 14.4198V14.5432Z" fill="#7AAFDE" style="fill:#7AAFDE;fill:color(display-p3 0.4784 0.6863 0.8706);fill-opacity:1;"/>
    <path d="M5.11071 10.3358C4.88848 10.2864 3.79713 10.0198 2.99219 10.6815C3.06626 10.8 3.14034 10.9877 3.06626 11.1062C3.36256 10.9482 4.01441 10.5235 5.11564 10.8296V10.3358" fill="#DB0B2D" style="fill:#DB0B2D;fill:color(display-p3 0.8588 0.0431 0.1765);fill-opacity:1;"/>
    <path d="M3.72349 10.5333L3.64941 10.5482V10.484L3.72349 10.4691V10.5383" fill="#DB0B2D" style="fill:#DB0B2D;fill:color(display-p3 0.8588 0.0431 0.1765);fill-opacity:1;"/>
    <path d="M4.77413 11.6296L4.79388 12.0395C4.00869 11.8914 3.16425 12.6617 3.16425 12.6617L3.06055 12.3753C3.5445 11.6889 4.77413 11.6296 4.77413 11.6296Z" fill="#DB0B2D" style="fill:#DB0B2D;fill:color(display-p3 0.8588 0.0431 0.1765);fill-opacity:1;"/>
    <path d="M9.21489 7.06173C9.36304 6.9284 9.43218 6.74074 9.28897 6.5284C9.07168 6.30124 8.63218 6.22222 8.34082 6.27654V6.19753C8.48897 6.15803 9.21489 6.10371 9.50625 6.66173C9.58033 6.90371 9.43218 7.25926 9.28897 7.31358C9.28897 7.24445 9.28897 7.15556 9.21489 7.06173Z" fill="#C69024" style="fill:#C69024;fill:color(display-p3 0.7765 0.5647 0.1412);fill-opacity:1;"/>
    <path d="M4.99186 7.06173C4.83877 6.9284 4.75976 6.74074 4.99186 6.5284C5.14495 6.30124 5.59927 6.22222 5.90544 6.27654L5.98445 6.19753C5.75235 6.15803 4.99186 6.10371 4.68569 6.66173C4.61161 6.90371 4.75976 7.25926 4.91285 7.31358C4.91285 7.24445 4.91285 7.15556 4.99186 7.06173Z" fill="#C69024" style="fill:#C69024;fill:color(display-p3 0.7765 0.5647 0.1412);fill-opacity:1;"/>
    <path d="M7.02159 6.18767C6.87344 6.13335 6.43887 5.96051 6.14751 6.13335C5.85122 6.321 5.85122 6.57286 6.14751 6.82471C6.07344 6.87903 6.07344 6.97286 6.0043 7.01236C5.85615 6.90866 5.63393 6.57286 5.93023 6.20249C6.0043 6.04446 6.43887 5.79261 7.02159 6.10866V6.18767Z" fill="#C69024" style="fill:#C69024;fill:color(display-p3 0.7765 0.5647 0.1412);fill-opacity:1;"/>
    <path d="M7.16992 6.18767C7.31313 6.13335 7.75758 5.96051 8.04893 6.13335C8.34029 6.321 8.34029 6.57286 8.12301 6.82471C8.12301 6.87903 8.12301 6.97286 8.19708 7.01236C8.34029 6.90866 8.56251 6.57286 8.34029 6.20249C8.19708 6.04446 7.75758 5.79261 7.16992 6.10866V6.18767Z" fill="#C69024" style="fill:#C69024;fill:color(display-p3 0.7765 0.5647 0.1412);fill-opacity:1;"/>
    <path d="M8.65152 8.0247C9.17004 7.80742 9.46634 7.37285 9.17004 6.87902C8.87374 6.49384 8.35523 6.66668 8.21202 6.77532C7.91572 6.58766 7.61942 6.50865 7.1009 6.49384C6.65646 6.47902 6.36016 6.58766 5.99473 6.77532C5.92066 6.66668 5.32807 6.50865 5.03177 6.89384C4.73547 7.38766 5.03177 7.81235 5.55029 8.0247H8.65646" fill="#DB0B2D" style="fill:#DB0B2D;fill:color(display-p3 0.8588 0.0431 0.1765);fill-opacity:1;"/>
    <path d="M8.70597 8.08892L8.78004 7.99509C8.34054 7.86176 7.75782 7.78275 7.10103 7.78275C6.44424 7.78275 5.85659 7.86176 5.49609 7.99509V8.08892C5.49609 8.08892 5.55041 8.0741 5.57511 8.06917L5.62943 8.36546C5.58992 8.38521 5.56523 8.40497 5.56523 8.42472C5.56523 8.54324 6.29609 8.63707 7.10103 8.63707C7.98004 8.63707 8.63683 8.54324 8.63683 8.42472C8.63683 8.40497 8.61214 8.38521 8.57264 8.36546L8.62696 8.06917C8.65165 8.07904 8.68622 8.08398 8.71091 8.08892H8.70597Z" fill="#C69024" style="fill:#C69024;fill:color(display-p3 0.7765 0.5647 0.1412);fill-opacity:1;"/>
    <path d="M7.09557 8.60742H4.75977V11.3877H7.09557V8.60742Z" fill="#DB0B2D" style="fill:#DB0B2D;fill:color(display-p3 0.8588 0.0431 0.1765);fill-opacity:1;"/>
    <path d="M9.43151 8.60742H7.0957V11.3877H9.43151V8.60742Z" fill="#E3E4E9" style="fill:#E3E4E9;fill:color(display-p3 0.8902 0.8941 0.9137);fill-opacity:1;"/>
    <path d="M7.0957 13.0815C7.0957 13.7333 7.60435 14.3704 8.26607 14.3704C8.40928 14.3704 8.55743 14.3457 8.63151 14.3062C9.21422 14.0543 9.43151 13.4519 9.43151 12.9729V11.3877H7.0957V13.0815Z" fill="#DB0B2D" style="fill:#DB0B2D;fill:color(display-p3 0.8588 0.0431 0.1765);fill-opacity:1;"/>
    <path d="M7.09616 14.2914C7.23937 14.2815 7.38751 14.1827 7.38751 14.079C7.38751 13.9852 7.31344 13.916 7.23937 13.8815V13.8025C7.23937 13.8025 7.16529 13.8025 7.16529 13.842C7.16529 13.8025 7.09122 13.7876 7.09122 13.7778C7.01714 13.7876 7.01714 13.8025 7.01714 13.842C7.01714 13.8025 6.94307 13.8025 6.94307 13.8025V13.8815C6.869 13.921 6.79492 13.9852 6.79492 14.079C6.79492 14.1827 6.869 14.2815 7.01221 14.2914V14.558H7.08628V14.2914" fill="white" style="fill:white;fill-opacity:1;"/>
    <path d="M7.02637 14.0642C7.02637 13.9704 7.02637 13.8914 7.10044 13.8914C7.17452 13.8914 7.17452 13.9704 7.17452 14.0642C7.17452 14.158 7.17452 14.2371 7.10044 14.2371C7.02637 14.2371 7.02637 14.158 7.02637 14.0642Z" fill="#DB0B2D" style="fill:#DB0B2D;fill:color(display-p3 0.8588 0.0431 0.1765);fill-opacity:1;"/>
    <path d="M6.58691 14.2617C6.66099 14.237 6.95235 14.3012 7.02642 14.4593C6.87827 14.4988 6.58691 14.4198 6.58691 14.2617Z" fill="#61A100" style="fill:#61A100;fill:color(display-p3 0.3804 0.6314 0.0000);fill-opacity:1;"/>
    <path d="M7.60923 14.2617C7.46602 14.237 7.2438 14.3012 7.10059 14.4593C7.31787 14.4988 7.53515 14.4198 7.60923 14.2617Z" fill="#61A100" style="fill:#61A100;fill:color(display-p3 0.3804 0.6314 0.0000);fill-opacity:1;"/>
    <path d="M5.78223 8.4247C5.78223 8.34569 6.36988 8.29137 7.09581 8.29137C7.82173 8.29137 8.40939 8.34075 8.40939 8.4247C8.40939 8.4889 7.82667 8.55803 7.09581 8.55803C6.36494 8.55803 5.78223 8.4889 5.78223 8.4247Z" fill="#DB0B2D" style="fill:#DB0B2D;fill:color(display-p3 0.8588 0.0431 0.1765);fill-opacity:1;"/>
    <path d="M6.07393 7.51607C6.148 7.51607 6.148 7.46175 6.148 7.39756C6.148 7.33336 6.148 7.27904 6.07393 7.27904C5.99986 7.27904 5.92578 7.33336 5.92578 7.39756C5.92578 7.46175 5.99986 7.51607 6.07393 7.51607Z" fill="#DB0B2D" style="fill:#DB0B2D;fill:color(display-p3 0.8588 0.0431 0.1765);fill-opacity:1;"/>
    <path d="M8.11802 7.51607C8.04395 7.51607 8.04395 7.46175 8.04395 7.39756C8.04395 7.33336 8.04395 7.27904 8.11802 7.27904C8.19209 7.27904 8.26617 7.33336 8.26617 7.39756C8.26617 7.46175 8.19209 7.51607 8.11802 7.51607Z" fill="#DB0B2D" style="fill:#DB0B2D;fill:color(display-p3 0.8588 0.0431 0.1765);fill-opacity:1;"/>
    <path d="M7.09557 13.0815C7.09557 13.7333 6.58693 14.3704 5.93014 14.3704C5.78199 14.3704 5.63384 14.3457 5.55977 14.3062C4.97705 14.0543 4.75977 13.4519 4.75977 12.9729V11.3877H7.09557V13.0815Z" fill="#C69024" style="fill:#C69024;fill:color(display-p3 0.7765 0.5647 0.1412);fill-opacity:1;"/>
    <path d="M4.97754 13.837C5.05161 13.9062 5.12569 14.0346 5.2689 14.1284V11.3877H4.97754V13.837Z" fill="#DB0B2D" style="fill:#DB0B2D;fill:color(display-p3 0.8588 0.0431 0.1765);fill-opacity:1;"/>
    <path d="M5.55957 14.2914C5.63364 14.3309 5.70772 14.3556 5.77685 14.3556V11.3877H5.55957V14.2914Z" fill="#DB0B2D" style="fill:#DB0B2D;fill:color(display-p3 0.8588 0.0431 0.1765);fill-opacity:1;"/>
    <path d="M6.07324 14.3556C6.14732 14.3556 6.29053 14.3161 6.3646 14.2914V11.3877H6.07324V14.3556Z" fill="#DB0B2D" style="fill:#DB0B2D;fill:color(display-p3 0.8588 0.0431 0.1765);fill-opacity:1;"/>
    <path d="M6.58691 14.1185C6.66099 14.0938 6.8042 13.9753 6.87827 13.8272V11.3926H6.58691V14.1185Z" fill="#DB0B2D" style="fill:#DB0B2D;fill:color(display-p3 0.8588 0.0431 0.1765);fill-opacity:1;"/>
    <path d="M6.36523 11.3877C6.36523 10.8543 6.65659 10.4198 7.0961 10.4198C7.5356 10.4198 7.82696 10.8593 7.82696 11.3877C7.82696 11.9161 7.53067 12.3605 7.0961 12.3605C6.66153 12.3605 6.36523 11.921 6.36523 11.3877Z" fill="#DB0B2D" style="fill:#DB0B2D;fill:color(display-p3 0.8588 0.0431 0.1765);fill-opacity:1;"/>
    <path d="M6.58691 11.3877C6.58691 10.9877 6.8042 10.6568 7.09556 10.6568C7.38691 10.6568 7.6042 10.9877 7.6042 11.3877C7.6042 11.7877 7.38691 12.1185 7.09556 12.1185C6.8042 12.1185 6.58691 11.7877 6.58691 11.3877Z" fill="#76B4E4" style="fill:#76B4E4;fill:color(display-p3 0.4627 0.7059 0.8941);fill-opacity:1;"/>
    <path d="M7.16934 5.50617V5.36296H7.31255V5.26914H7.16934V5.15062H7.09527V5.26914H6.95206V5.36296H7.09527V5.50617C6.97181 5.52593 6.87305 5.62469 6.87305 5.75803C6.87305 5.90124 6.98663 6.01482 7.12984 6.01482C7.27305 6.01482 7.38663 5.90124 7.38663 5.75803C7.38663 5.62963 7.28786 5.52593 7.1644 5.50617H7.16934Z" fill="#C69024" style="fill:#C69024;fill:color(display-p3 0.7765 0.5647 0.1412);fill-opacity:1;"/>
    <path d="M7.24336 6.94322C7.24336 6.84939 7.38657 6.77038 7.38657 6.74568C7.38657 6.69136 7.3125 6.55803 7.3125 6.45433C7.3125 6.33581 7.3125 5.8963 7.09521 5.8963C6.952 5.8963 6.952 6.33581 6.952 6.45433C6.952 6.56297 6.87793 6.6963 6.87793 6.74568C6.87793 6.77531 7.02608 6.85433 7.02608 6.94322H7.24336Z" fill="#C69024" style="fill:#C69024;fill:color(display-p3 0.7765 0.5647 0.1412);fill-opacity:1;"/>
    <path d="M7.13057 7.58027V6.88397H7.02193C6.78489 6.95311 7.0318 7.11607 7.0318 7.11607C7.08119 7.22471 6.95279 7.26916 6.95279 7.26916C6.87378 7.11607 6.74044 7.17039 6.74044 7.17039C6.81946 7.40249 6.54785 7.42718 6.54785 7.42718C6.81946 7.52595 6.64168 7.67903 6.64168 7.67903C6.81946 7.57533 7.12069 7.58027 7.12069 7.58027H7.13057Z" fill="#C69024" style="fill:#C69024;fill:color(display-p3 0.7765 0.5647 0.1412);fill-opacity:1;"/>
    <path d="M7.12988 7.58027V6.88397H7.23852C7.47556 6.95311 7.22865 7.11607 7.22865 7.11607C7.17927 7.22471 7.30766 7.26916 7.30766 7.26916C7.38667 7.11607 7.52001 7.17039 7.52001 7.17039C7.44099 7.40249 7.7126 7.42718 7.7126 7.42718C7.44099 7.52595 7.61877 7.67903 7.61877 7.67903C7.44099 7.57533 7.13976 7.58027 7.13976 7.58027H7.12988Z" fill="#C69024" style="fill:#C69024;fill:color(display-p3 0.7765 0.5647 0.1412);fill-opacity:1;"/>
    <path d="M8.3008 7.72347L8.45389 7.04692L8.35018 7.02223C8.10327 7.03705 8.31068 7.25433 8.31068 7.25433C8.33537 7.36791 8.20203 7.38273 8.20203 7.38273C8.16253 7.21482 8.01932 7.23952 8.01932 7.23952C8.04401 7.48643 7.77734 7.44692 7.77734 7.44692C8.01932 7.60001 7.81685 7.71359 7.81685 7.71359C8.01438 7.64939 8.30574 7.72347 8.30574 7.72347H8.3008Z" fill="#C69024" style="fill:#C69024;fill:color(display-p3 0.7765 0.5647 0.1412);fill-opacity:1;"/>
    <path d="M8.29992 7.72346L8.453 7.04692L8.55671 7.07161C8.76905 7.19013 8.49251 7.29877 8.49251 7.29877C8.42337 7.3926 8.53201 7.46174 8.53201 7.46174C8.64066 7.3284 8.75918 7.41235 8.75918 7.41235C8.63078 7.6247 8.88757 7.70371 8.88757 7.70371C8.60115 7.73828 8.73942 7.92593 8.73942 7.92593C8.59127 7.78272 8.29004 7.72346 8.29004 7.72346H8.29992Z" fill="#C69024" style="fill:#C69024;fill:color(display-p3 0.7765 0.5647 0.1412);fill-opacity:1;"/>
    <path d="M5.95973 7.72347L5.80664 7.04692L5.91034 7.02223C6.15726 7.03705 5.94985 7.25433 5.94985 7.25433C5.92516 7.36791 6.05849 7.38273 6.05849 7.38273C6.098 7.21482 6.24121 7.23952 6.24121 7.23952C6.21652 7.48643 6.48318 7.44692 6.48318 7.44692C6.24121 7.60001 6.44368 7.71359 6.44368 7.71359C6.24615 7.64939 5.95479 7.72347 5.95479 7.72347H5.95973Z" fill="#C69024" style="fill:#C69024;fill:color(display-p3 0.7765 0.5647 0.1412);fill-opacity:1;"/>
    <path d="M5.9607 7.72346L5.80761 7.04692L5.70391 7.07161C5.49157 7.19013 5.76811 7.29877 5.76811 7.29877C5.83724 7.3926 5.7286 7.46174 5.7286 7.46174C5.61996 7.3284 5.50144 7.41235 5.50144 7.41235C5.62984 7.6247 5.37305 7.70371 5.37305 7.70371C5.65947 7.73828 5.5212 7.92593 5.5212 7.92593C5.66934 7.78272 5.97058 7.72346 5.97058 7.72346H5.9607Z" fill="#C69024" style="fill:#C69024;fill:color(display-p3 0.7765 0.5647 0.1412);fill-opacity:1;"/>
  </g>
</svg>