<svg xmlns="http://www.w3.org/2000/svg" version="1.1" xmlns:xlink="http://www.w3.org/1999/xlink" width="1433.68" height="1433.68"><svg id="SvgjsSvg1003" xmlns="http://www.w3.org/2000/svg" viewBox="0 0 1433.68 1433.68"><defs><style>.cls-1{fill:#ce1620;}.cls-2{fill:#fff;}</style></defs><g id="SvgjsG1002"><circle class="cls-2" cx="716.84" cy="716.84" r="716.84"></circle><path class="cls-1" d="M880.35,396.27c-89.08,5.38-150.85,67.39-162.33,154.67-2.94,22.38-.78,32.45-12.71,53.29-7.49,13.08-29.64,37.33-33.14,48.86-6.47,21.31,16.4,28.79,28.56,39.95-.48,6.81-1.54,13.81-.73,20.66.59,4.96,4.68,10.22,4.85,13.16.26,4.42-1.75,8.53-.52,14.51,1.1,5.33,6.86,10.96,7.51,14.49,2.34,12.62-3.21,25.3,2.31,38.69,12.36,29.98,61.62,28.25,88.28,26.8,49.07-2.66,92.8-29.12,103.78-79.22,3.01-13.72,3.85-27.82,3.71-41.87v-2.91c6.84-.49,12.26-6.13,12.26-13.09h-45.64c0,6.96,5.42,12.61,12.26,13.09v.1c-1.14,12.36-.82,24.47-3.58,36.69-6.5,28.77-24.61,49.04-52.55,58.45-18.95,6.38-67,9.93-85.46,2.92-4.01-1.52-11.92-6.42-13.55-10.45-2.88-7.09,1.45-24.74.16-34.16-.79-5.72-5.99-9.91-6.72-13.33-.46-2.17,2.31-6.96,1.73-11.66-.68-5.57-6.3-11.58-6.7-16.32-.38-4.41,1.81-12.29,1.78-16.77-.06-7.67-3.93-14.6-9.47-19.53-4.67-4.15-13.84-7.66-17.07-10.93-.99-1.01-1.76-1.74-1.31-3.3,16.52-27.37,38.27-48.08,42.73-81.37,4.05-30.22,4.6-50.95,18.6-79.4,44.17-89.75,173.79-103.34,248.43-44.37,43.76,34.57,62.67,100.6,53.85,154.64-9.32,57.09-59.39,91.77-63.73,150.27-2.28,30.77,7.09,54.97,8.98,84,7.11,109.4-66.25,218.71-171.99,248.99-140.95,40.36-318.56-20.48-323.04-186.96l.04-421.54h137.5l1.5-1.5v-43c0-.18-2.32-2.5-2.5-2.5h-136.5v-131.5l-1.5-1.5h-44l-1.5,1.5v129.5h-138.5l-1.5,1.5v47.5h140l-.04,417.54c6.95,178.15,171.38,248.27,330.38,225.29,142.89-20.65,241.84-138.98,233.66-284.32-2.99-53.09-21.25-75.08,7.49-128.53,21.18-39.4,45.36-63.58,48.56-112.44,8.37-127.67-74.35-212.32-202.58-204.58Z"></path><path class="cls-1" d="M879.21,676.13h40.28c3,0,5.43-2.43,5.43-5.43s-2.44-5.43-5.43-5.43h-40.28c-3,0-5.43,2.43-5.43,5.43s2.43,5.43,5.43,5.43Z"></path><path class="cls-1" d="M874.4,657.52h49.91c5.32-9.07,11.32-17.83,17.82-26.09,7.28-9.24,11.65-20.88,11.65-33.56,0-30.06-24.37-54.42-54.42-54.42s-54.43,24.37-54.43,54.42c0,12.68,4.36,24.33,11.65,33.57,6.44,8.17,12.55,17.1,17.82,26.08ZM853.55,597.35c0-25.3,20.59-45.89,45.89-45.89,2.99,0,5.43,2.43,5.43,5.43s-2.44,5.43-5.43,5.43c-19.32,0-35.03,15.71-35.03,35.03,0,3-2.43,5.43-5.43,5.43s-5.43-2.43-5.43-5.43Z"></path><path class="cls-1" d="M908.91,518.47v-18.6c0-4.42-3.58-8-8-8s-7.99,3.58-7.99,8v18.6c0,4.42,3.57,8,7.99,8s8-3.58,8-8Z"></path><path class="cls-1" d="M854.93,541.42c1.62,0,3.27-.5,4.69-1.53,3.57-2.59,4.37-7.59,1.77-11.16l-10.93-15.05c-2.6-3.57-7.59-4.37-11.17-1.77-3.57,2.59-4.37,7.59-1.77,11.16l10.93,15.05c1.57,2.16,4.01,3.3,6.48,3.3Z"></path><path class="cls-1" d="M828.97,564.94l-17.7-5.75c-4.24-1.37-8.71.93-10.08,5.13-1.37,4.2.93,8.71,5.13,10.08l17.7,5.75c.83.27,1.65.4,2.47.4,3.37,0,6.5-2.15,7.61-5.53,1.37-4.2-.93-8.71-5.13-10.08Z"></path><path class="cls-1" d="M972.86,628.51l17.7,5.75c.82.27,1.65.39,2.47.39,3.37,0,6.5-2.15,7.61-5.53,1.36-4.2-.94-8.71-5.14-10.08l-17.69-5.75c-4.2-1.36-8.71.94-10.07,5.13-1.37,4.2.94,8.71,5.14,10.08Z"></path><path class="cls-1" d="M824.03,613.3l-17.7,5.74c-4.2,1.36-6.5,5.87-5.14,10.07,1.09,3.38,4.23,5.53,7.6,5.53.81,0,1.65-.13,2.47-.4l17.7-5.74c4.2-1.36,6.51-5.87,5.14-10.07-1.36-4.2-5.83-6.49-10.07-5.14Z"></path><path class="cls-1" d="M975.33,580.54c.82,0,1.65-.13,2.47-.4l17.69-5.75c4.2-1.37,6.5-5.88,5.14-10.08-1.37-4.2-5.9-6.49-10.07-5.13l-17.7,5.75c-4.2,1.37-6.5,5.88-5.14,10.08,1.1,3.38,4.23,5.53,7.61,5.53Z"></path><path class="cls-1" d="M946.9,541.42c2.48,0,4.91-1.14,6.48-3.3l10.93-15.05c2.59-3.57,1.8-8.57-1.77-11.16-3.59-2.61-8.57-1.8-11.17,1.77l-10.93,15.05c-2.59,3.57-1.8,8.57,1.77,11.16,1.42,1.03,3.07,1.53,4.69,1.53Z"></path></g></svg><style>@media (prefers-color-scheme: light) { :root { filter: none; } }
@media (prefers-color-scheme: dark) { :root { filter: none; } }
</style></svg>